<svg width="74" height="16" viewBox="0 0 74 16" fill="none" xmlns="http://www.w3.org/2000/svg">
<g clip-path="url(#clip0_14_1110)">
<path d="M19.6216 1.04279C19.6216 0.904312 19.7358 0.791016 19.8755 0.791016H25.9857C28.6473 0.791016 30.3336 2.19254 30.3336 4.39972C30.3336 5.63759 29.7179 6.69713 28.8018 7.34124C28.6515 7.44614 28.6664 7.67693 28.8293 7.76295C29.9802 8.3672 30.7504 9.50227 30.7504 11.0213C30.7504 13.497 29.0451 15.2279 26.2375 15.2279H19.8776C19.7379 15.2279 19.6237 15.1146 19.6237 14.9762V1.04279H19.6216ZM25.6324 6.56495C26.9632 6.56495 27.7333 5.92503 27.7333 4.83193C27.7333 3.73883 26.923 3.11989 25.6324 3.11989H22.4334C22.2938 3.11989 22.1795 3.23319 22.1795 3.37166V6.31318C22.1795 6.45165 22.2938 6.56495 22.4334 6.56495H25.6324ZM25.882 12.897C27.3165 12.897 28.148 12.1123 28.148 10.7926C28.148 9.47289 27.3377 8.75115 25.882 8.75115H22.4334C22.2938 8.75115 22.1795 8.86445 22.1795 9.00292V12.6452C22.1795 12.7837 22.2938 12.897 22.4334 12.897H25.882Z" fill="#282828"/>
<path d="M33.0586 0.791016H35.1087C35.2484 0.791016 35.3626 0.904312 35.3626 1.04279V14.9762C35.3626 15.1146 35.2484 15.2279 35.1087 15.2279H33.0586C32.9189 15.2279 32.8047 15.1146 32.8047 14.9762V1.04279C32.8047 0.904312 32.9189 0.791016 33.0586 0.791016Z" fill="#282828"/>
<path d="M38.0625 0.791016H40.1126C40.2523 0.791016 40.3665 0.904312 40.3665 1.04279V12.6053C40.3665 12.7438 40.4808 12.8571 40.6204 12.8571H46.7687C46.9084 12.8571 47.0226 12.9704 47.0226 13.1089V14.9762C47.0226 15.1146 46.9084 15.2279 46.7687 15.2279H38.0625C37.9228 15.2279 37.8086 15.1146 37.8086 14.9762V1.04279C37.8086 0.904312 37.9228 0.791016 38.0625 0.791016Z" fill="#282828"/>
<path d="M49.3179 0.791016H51.368C51.5076 0.791016 51.6219 0.904312 51.6219 1.04279V12.6053C51.6219 12.7438 51.7361 12.8571 51.8758 12.8571H58.0241C58.1637 12.8571 58.278 12.9704 58.278 13.1089V14.9762C58.278 15.1146 58.1637 15.2279 58.0241 15.2279H49.3179C49.1782 15.2279 49.064 15.1146 49.064 14.9762V1.04279C49.064 0.904312 49.1782 0.791016 49.3179 0.791016Z" fill="#282828"/>
<path d="M60.3623 0.830933H62.4124C62.5521 0.830933 62.6663 0.944229 62.6663 1.0827V15.0161C62.6663 15.1546 62.5521 15.2679 62.4124 15.2679H60.3623C60.2226 15.2679 60.1084 15.1546 60.1084 15.0161V1.0827C60.1084 0.944229 60.2226 0.830933 60.3623 0.830933Z" fill="#282828"/>
<path d="M65.04 0.791016H73.7463C73.8859 0.791016 74.0002 0.904312 74.0002 1.04279V2.91008C74.0002 3.04856 73.8859 3.16185 73.7463 3.16185H67.5979C67.4583 3.16185 67.3441 3.27515 67.3441 3.41362V6.21037C67.3441 6.34884 67.4583 6.46214 67.5979 6.46214H73.7463C73.8859 6.46214 74.0002 6.57544 74.0002 6.71391V8.5833C74.0002 8.72178 73.8859 8.83507 73.7463 8.83507H67.5979C67.4583 8.83507 67.3441 8.94837 67.3441 9.08685V12.6053C67.3441 12.7438 67.4583 12.8571 67.5979 12.8571H73.7463C73.8859 12.8571 74.0002 12.9704 74.0002 13.1089V14.9762C74.0002 15.1146 73.8859 15.2279 73.7463 15.2279H65.04C64.9004 15.2279 64.7861 15.1146 64.7861 14.9762V1.04279C64.7861 0.904312 64.9004 0.791016 65.04 0.791016Z" fill="#282828"/>
<path d="M11.6154 7.7797L14.3193 4.77105C14.4124 4.66824 14.4124 4.51298 14.3193 4.41227L10.4052 0.1091C10.3417 0.0398636 10.2507 0 10.1577 0H0.334286C0.150217 0 0 0.148964 0 0.331498V3.93391C0 4.11644 0.150217 4.26541 0.334286 4.26541H7.85785C7.93401 4.26541 8.00806 4.29688 8.05884 4.35353L11.0759 7.79229C11.169 7.8951 11.1669 8.05035 11.0738 8.15106L7.45586 12.1899C7.40508 12.2444 7.33314 12.2759 7.25698 12.2759H5.03122C4.84715 12.2759 4.69694 12.1269 4.69694 11.9444V6.16837C4.69694 5.87254 4.33726 5.72358 4.12569 5.93339L0.0973239 9.92604C0.0338518 9.98899 0 10.0729 0 10.161V15.6664C0 15.8489 0.150217 15.9979 0.334286 15.9979H10.1915C10.2846 15.9979 10.3756 15.958 10.439 15.8909L14.3637 11.6528C14.4568 11.5521 14.4589 11.3947 14.3637 11.2919L11.6112 8.13847C11.5181 8.03567 11.5181 7.88041 11.6112 7.7797H11.6154Z" fill="#282828"/>
</g>
<defs>
<clipPath id="clip0_14_1110">
<rect width="74" height="16" fill="white"/>
</clipPath>
</defs>
</svg>
